<mxfile host="app.diagrams.net" modified="2021-07-06T07:43:07.899Z" agent="5.0 (Windows NT 10.0; WOW64) AppleWebKit/537.36 (KHTML, like Gecko) Chrome/86.0.4240.198 Safari/537.36" etag="-KrNt5dHCnZ59CdFOl4A" version="14.8.0" type="github">
  <diagram id="_GguZ7U3eap8ssgsz3NK" name="第 1 页">
    <mxGraphModel dx="979" dy="663" grid="0" gridSize="10" guides="1" tooltips="1" connect="1" arrows="1" fold="1" page="1" pageScale="1" pageWidth="850" pageHeight="2000" math="0" shadow="0">
      <root>
        <mxCell id="0" />
        <mxCell id="1" parent="0" />
        <mxCell id="jW9oAG5GVhoArk8jypPi-2" value="" style="rounded=0;whiteSpace=wrap;html=1;" vertex="1" parent="1">
          <mxGeometry x="220" y="220" width="450" height="150" as="geometry" />
        </mxCell>
        <mxCell id="jW9oAG5GVhoArk8jypPi-3" value="投影" style="rounded=0;whiteSpace=wrap;html=1;" vertex="1" parent="1">
          <mxGeometry x="125" y="195" width="30" height="200" as="geometry" />
        </mxCell>
        <mxCell id="jW9oAG5GVhoArk8jypPi-4" value="张校长" style="shape=mxgraph.signs.transportation.seat_belt;html=1;pointerEvents=1;fillColor=#000000;strokeColor=none;verticalLabelPosition=bottom;verticalAlign=top;align=center;" vertex="1" parent="1">
          <mxGeometry x="425" y="145" width="40" height="50" as="geometry" />
        </mxCell>
        <mxCell id="jW9oAG5GVhoArk8jypPi-5" value="徐书记" style="shape=mxgraph.signs.transportation.seat_belt;html=1;pointerEvents=1;fillColor=#000000;strokeColor=none;verticalLabelPosition=bottom;verticalAlign=top;align=center;" vertex="1" parent="1">
          <mxGeometry x="480" y="145" width="40" height="50" as="geometry" />
        </mxCell>
        <mxCell id="jW9oAG5GVhoArk8jypPi-6" value="蒋南" style="shape=mxgraph.signs.transportation.seat_belt;html=1;pointerEvents=1;fillColor=#000000;strokeColor=none;verticalLabelPosition=bottom;verticalAlign=top;align=center;" vertex="1" parent="1">
          <mxGeometry x="370" y="145" width="40" height="50" as="geometry" />
        </mxCell>
        <mxCell id="jW9oAG5GVhoArk8jypPi-7" value="孙爱梅" style="shape=mxgraph.signs.transportation.seat_belt;html=1;pointerEvents=1;fillColor=#000000;strokeColor=none;verticalLabelPosition=bottom;verticalAlign=top;align=center;" vertex="1" parent="1">
          <mxGeometry x="310" y="145" width="40" height="50" as="geometry" />
        </mxCell>
        <mxCell id="jW9oAG5GVhoArk8jypPi-8" value="沈艺" style="shape=mxgraph.signs.transportation.seat_belt;html=1;pointerEvents=1;fillColor=#000000;strokeColor=none;verticalLabelPosition=bottom;verticalAlign=top;align=center;" vertex="1" parent="1">
          <mxGeometry x="540" y="145" width="40" height="50" as="geometry" />
        </mxCell>
        <mxCell id="jW9oAG5GVhoArk8jypPi-11" value="" style="shape=mxgraph.signs.transportation.seat_belt;html=1;pointerEvents=1;fillColor=#000000;strokeColor=none;verticalLabelPosition=bottom;verticalAlign=top;align=center;" vertex="1" parent="1">
          <mxGeometry x="535" y="395" width="40" height="50" as="geometry" />
        </mxCell>
        <mxCell id="jW9oAG5GVhoArk8jypPi-12" value="" style="shape=mxgraph.signs.transportation.seat_belt;html=1;pointerEvents=1;fillColor=#000000;strokeColor=none;verticalLabelPosition=bottom;verticalAlign=top;align=center;" vertex="1" parent="1">
          <mxGeometry x="595" y="395" width="40" height="50" as="geometry" />
        </mxCell>
        <mxCell id="jW9oAG5GVhoArk8jypPi-13" value="" style="shape=mxgraph.signs.transportation.seat_belt;html=1;pointerEvents=1;fillColor=#000000;strokeColor=none;verticalLabelPosition=bottom;verticalAlign=top;align=center;" vertex="1" parent="1">
          <mxGeometry x="655" y="395" width="40" height="50" as="geometry" />
        </mxCell>
        <mxCell id="jW9oAG5GVhoArk8jypPi-14" value="" style="shape=mxgraph.signs.transportation.seat_belt;html=1;pointerEvents=1;fillColor=#000000;strokeColor=none;verticalLabelPosition=bottom;verticalAlign=top;align=center;" vertex="1" parent="1">
          <mxGeometry x="365" y="395" width="40" height="50" as="geometry" />
        </mxCell>
        <mxCell id="jW9oAG5GVhoArk8jypPi-15" value="" style="shape=mxgraph.signs.transportation.seat_belt;html=1;pointerEvents=1;fillColor=#000000;strokeColor=none;verticalLabelPosition=bottom;verticalAlign=top;align=center;" vertex="1" parent="1">
          <mxGeometry x="425" y="395" width="40" height="50" as="geometry" />
        </mxCell>
        <mxCell id="jW9oAG5GVhoArk8jypPi-16" value="" style="shape=mxgraph.signs.transportation.seat_belt;html=1;pointerEvents=1;fillColor=#000000;strokeColor=none;verticalLabelPosition=bottom;verticalAlign=top;align=center;" vertex="1" parent="1">
          <mxGeometry x="485" y="395" width="40" height="50" as="geometry" />
        </mxCell>
        <mxCell id="jW9oAG5GVhoArk8jypPi-17" value="" style="shape=mxgraph.signs.transportation.seat_belt;html=1;pointerEvents=1;fillColor=#000000;strokeColor=none;verticalLabelPosition=bottom;verticalAlign=top;align=center;" vertex="1" parent="1">
          <mxGeometry x="195" y="395" width="40" height="50" as="geometry" />
        </mxCell>
        <mxCell id="jW9oAG5GVhoArk8jypPi-18" value="" style="shape=mxgraph.signs.transportation.seat_belt;html=1;pointerEvents=1;fillColor=#000000;strokeColor=none;verticalLabelPosition=bottom;verticalAlign=top;align=center;" vertex="1" parent="1">
          <mxGeometry x="255" y="395" width="40" height="50" as="geometry" />
        </mxCell>
        <mxCell id="jW9oAG5GVhoArk8jypPi-19" value="" style="shape=mxgraph.signs.transportation.seat_belt;html=1;pointerEvents=1;fillColor=#000000;strokeColor=none;verticalLabelPosition=bottom;verticalAlign=top;align=center;" vertex="1" parent="1">
          <mxGeometry x="315" y="395" width="40" height="50" as="geometry" />
        </mxCell>
      </root>
    </mxGraphModel>
  </diagram>
</mxfile>
